<?xml version="1.0" encoding="UTF-8"?>
<svg id="_图层_1" data-name="图层 1" xmlns="http://www.w3.org/2000/svg" version="1.1" viewBox="0 0 1280 520">
  <defs>
    <style>
      .cls-1 {
        fill: #20375b;
      }

      .cls-1, .cls-2, .cls-3, .cls-4, .cls-5, .cls-6, .cls-7, .cls-8, .cls-9, .cls-10, .cls-11 {
        isolation: isolate;
      }

      .cls-1, .cls-12, .cls-3, .cls-4, .cls-6 {
        font-family: SegoeUI-Bold, 'Segoe UI';
        font-weight: 700;
      }

      .cls-1, .cls-3, .cls-4, .cls-6 {
        font-size: 22px;
      }

      .cls-2 {
        fill: #1f2933;
        font-size: 30px;
      }

      .cls-3 {
        fill: #4b3416;
      }

      .cls-13 {
        fill: #eef5f0;
        stroke: #b8d7c0;
      }

      .cls-4 {
        fill: #4b2a4d;
      }

      .cls-14 {
        fill: #f5f0e8;
        stroke: #dcc49b;
      }

      .cls-15 {
        fill: none;
      }

      .cls-15, .cls-16, .cls-17, .cls-18 {
        stroke-width: 0px;
      }

      .cls-19 {
        font-family: MicrosoftYaHei, 'Microsoft YaHei';
      }

      .cls-16 {
        fill: #7a8691;
      }

      .cls-20 {
        fill: #eef2f8;
        stroke: #b9c7df;
      }

      .cls-17 {
        fill: #59636e;
      }

      .cls-5 {
        fill: #274636;
      }

      .cls-5, .cls-7, .cls-8, .cls-9 {
        font-size: 16px;
      }

      .cls-5, .cls-7, .cls-8, .cls-9, .cls-11 {
        font-family: SegoeUI, 'Segoe UI';
      }

      .cls-6 {
        fill: #173b27;
      }

      .cls-7 {
        fill: #5a4224;
      }

      .cls-21 {
        fill: #f4edf4;
        stroke: #d5b8d4;
      }

      .cls-18 {
        fill: #fbfaf7;
      }

      .cls-8 {
        fill: #304868;
      }

      .cls-9 {
        fill: #5d3b60;
      }

      .cls-10 {
        fill: #26323f;
        font-size: 20px;
      }

      .cls-22 {
        fill: #fff;
        stroke: #d5d9de;
      }

      .cls-11 {
        fill: #5b6470;
        font-size: 17px;
      }
    </style>
  </defs>
  <rect class="cls-18" y="0" width="1280" height="520"/>
  <text class="cls-2" transform="translate(64 58)"><tspan class="cls-12" x="0" y="0">Convertible Bond Research Logic / </tspan><tspan class="cls-19" x="493.1" y="0">可转债研究逻辑</tspan></text>
  <text class="cls-11" transform="translate(64 92)"><tspan x="0" y="0">From market fit to sealed execution, without turning every good-looking result into a rule.</tspan></text>
  <g>
    <rect class="cls-13" x="64" y="140" width="225" height="150" rx="16" ry="16"/>
    <text class="cls-6" transform="translate(88 178)"><tspan x="0" y="0">Market Fit</tspan></text>
    <text class="cls-5" transform="translate(88 210)"><tspan x="0" y="0">Small-capital niche</tspan></text>
    <text class="cls-5" transform="translate(88 235)"><tspan x="0" y="0">Scale diseconomy</tspan></text>
    <text class="cls-5" transform="translate(88 260)"><tspan x="0" y="0">Low-frequency execution</tspan></text>
    <path class="cls-15" d=""/>
    <path class="cls-16" d="M318,206v18l27-9-27-9Z"/>
    <path class="cls-16" d="M345,215" marker-end="url(#arrow)"/>
    <rect class="cls-14" x="345" y="140" width="225" height="150" rx="16" ry="16"/>
    <text class="cls-3" transform="translate(369 178)"><tspan x="0" y="0">Core Edge</tspan></text>
    <text class="cls-7" transform="translate(369 210)"><tspan x="0" y="0">Low price</tspan></text>
    <text class="cls-7" transform="translate(369 235)"><tspan x="0" y="0">Low premium</tspan></text>
    <text class="cls-7" transform="translate(369 260)"><tspan x="0" y="0">Stock momentum</tspan></text>
    <path class="cls-15" d=""/>
    <path class="cls-16" d="M599,206v18l27-9-27-9Z"/>
    <path class="cls-16" d="M626,215" marker-end="url(#arrow)"/>
    <rect class="cls-20" x="626" y="140" width="225" height="150" rx="16" ry="16"/>
    <text class="cls-1" transform="translate(650 178)"><tspan x="0" y="0">Execution Shell</tspan></text>
    <text class="cls-8" transform="translate(650 210)"><tspan x="0" y="0">PIT strong-call filter</tspan></text>
    <text class="cls-8" transform="translate(650 235)"><tspan x="0" y="0">T+2 weekly process</tspan></text>
    <text class="cls-8" transform="translate(650 260)"><tspan x="0" y="0">15bp cost stress</tspan></text>
    <path class="cls-15" d=""/>
    <path class="cls-16" d="M880,206v18l27-9-27-9Z"/>
    <path class="cls-16" d="M907,215" marker-end="url(#arrow)"/>
    <rect class="cls-21" x="907" y="140" width="225" height="150" rx="16" ry="16"/>
    <text class="cls-4" transform="translate(931 178)"><tspan x="0" y="0">Sealed Version</tspan></text>
    <text class="cls-9" transform="translate(931 210)"><tspan x="0" y="0">top12 + keep37</tspan></text>
    <text class="cls-9" transform="translate(931 235)"><tspan x="0" y="0">Retention buffer</tspan></text>
    <text class="cls-9" transform="translate(931 260)"><tspan x="0" y="0">No new alpha story</tspan></text>
    <rect class="cls-22" x="216" y="350" width="848" height="82" rx="14" ry="14"/>
    <text class="cls-10" transform="translate(237.1 379.1)"><tspan class="cls-12" x="0" y="0">Research Discipline / </tspan><tspan class="cls-19" x="200.5" y="0">研究纪律</tspan></text>
    <g>
      <path class="cls-17" d="M251.6,399.7h-1.3v-7.5c0-.6,0-1.3.1-2.2h0c-.1.5-.2.9-.3,1.1l-3.8,8.6h-.6l-3.8-8.5c-.1-.2-.2-.6-.3-1.1h0c0,.4,0,1.2,0,2.2v7.5h-1.3v-11.2h1.7l3.4,7.8c.3.6.4,1,.5,1.3h0c.2-.6.4-1.1.5-1.4l3.5-7.8h1.6v11.2Z"/>
      <path class="cls-17" d="M263.2,399.7h-1.5l-1.2-3.1h-4.8l-1.1,3.1h-1.5l4.3-11.2h1.4l4.3,11.2ZM260.2,395.4l-1.8-4.8c0-.2-.1-.4-.2-.8h0c0,.3-.1.6-.2.8l-1.7,4.8h3.9Z"/>
      <path class="cls-17" d="M265.9,397.9l-1.2,3.8h-.9l.9-3.8h1.2Z"/>
      <path class="cls-17" d="M273.9,398.6h0v1.2h-1.3v-11.8h1.3v5.2h0c.6-1.1,1.6-1.6,2.8-1.6s1.8.4,2.4,1.1c.6.7.9,1.7.9,2.9s-.3,2.4-1,3.2c-.7.8-1.5,1.2-2.7,1.2s-1.9-.4-2.4-1.3ZM273.8,395.3v1.1c0,.7.2,1.2.6,1.7s1,.7,1.6.7,1.4-.3,1.8-.9c.4-.6.7-1.4.7-2.5s-.2-1.6-.6-2.1c-.4-.5-1-.8-1.7-.8s-1.3.3-1.8.8-.7,1.2-.7,1.9Z"/>
      <path class="cls-17" d="M286.1,393c-.2-.2-.5-.3-1-.3s-1,.3-1.4.8-.6,1.2-.6,2.1v4.1h-1.3v-8h1.3v1.6h0c.2-.6.5-1,.8-1.3s.8-.5,1.3-.5.6,0,.8.1v1.3Z"/>
      <path class="cls-17" d="M294,396h-5.6c0,.9.3,1.6.7,2.1.5.5,1.1.7,1.9.7s1.7-.3,2.5-.9v1.2c-.7.5-1.6.8-2.8.8s-2-.4-2.7-1.1c-.6-.7-1-1.7-1-3.1s.4-2.3,1.1-3c.7-.8,1.6-1.2,2.6-1.2s1.9.3,2.4,1c.6.7.9,1.6.9,2.8v.7ZM292.6,395c0-.7-.2-1.3-.5-1.7s-.8-.6-1.5-.6-1.1.2-1.5.6-.7,1-.8,1.7h4.3Z"/>
      <path class="cls-17" d="M301.6,399.7h-1.3v-1.2h0c-.6,1-1.4,1.4-2.5,1.4s-1.4-.2-1.9-.6c-.5-.4-.7-1-.7-1.7,0-1.5.9-2.4,2.6-2.6l2.4-.3c0-1.4-.5-2-1.6-2s-1.8.3-2.6,1v-1.3c.8-.5,1.7-.8,2.7-.8,1.9,0,2.8,1,2.8,3v5.2ZM300.3,395.7l-1.9.3c-.6,0-1,.2-1.3.4-.3.2-.5.6-.5,1.1s.1.7.4,1c.3.2.6.4,1.1.4s1.2-.2,1.6-.7.6-1,.6-1.7v-.8Z"/>
      <path class="cls-17" d="M310.9,399.7h-1.3v-1.4h0c-.6,1-1.5,1.5-2.8,1.5s-1.8-.4-2.4-1.1-.9-1.7-.9-2.9.3-2.4,1-3.2c.7-.8,1.6-1.2,2.7-1.2s1.9.4,2.4,1.3h0v-5h1.3v11.8ZM309.6,396.1v-1.2c0-.6-.2-1.2-.6-1.6-.4-.4-1-.7-1.6-.7s-1.4.3-1.8.9c-.4.6-.7,1.4-.7,2.4s.2,1.6.6,2.2,1,.8,1.7.8,1.3-.3,1.7-.8.7-1.2.7-2Z"/>
      <path class="cls-17" d="M317.2,399.6c-.3.2-.7.2-1.2.2-1.4,0-2.1-.8-2.1-2.3v-4.7h-1.4v-1.1h1.4v-2l1.3-.4v2.4h2v1.1h-2v4.5c0,.5,0,.9.3,1.1.2.2.5.3.9.3s.6,0,.8-.3v1.1Z"/>
      <path class="cls-17" d="M325.5,399.7h-1.3v-4.6c0-1.7-.6-2.5-1.9-2.5s-1.2.2-1.6.7c-.4.5-.6,1.1-.6,1.9v4.5h-1.3v-11.8h1.3v5.2h0c.6-1,1.5-1.5,2.6-1.5,1.8,0,2.7,1.1,2.7,3.3v4.9Z"/>
      <path class="cls-17" d="M329.1,397.9l-1.2,3.8h-.9l.9-3.8h1.2Z"/>
      <path class="cls-17" d="M347.1,399.7h-1.3v-4.6c0-.9-.1-1.5-.4-1.9s-.7-.6-1.4-.6-1,.2-1.4.8-.6,1.1-.6,1.8v4.6h-1.3v-4.8c0-1.6-.6-2.4-1.8-2.4s-1,.2-1.4.7c-.4.5-.5,1.1-.5,1.8v4.6h-1.3v-8h1.3v1.3h0c.6-1,1.4-1.5,2.5-1.5s1,.2,1.4.5.7.7.8,1.2c.6-1.1,1.5-1.7,2.7-1.7,1.8,0,2.6,1.1,2.6,3.3v4.9Z"/>
      <path class="cls-17" d="M355.3,399.7h-1.3v-1.2h0c-.6,1-1.4,1.4-2.5,1.4s-1.4-.2-1.9-.6c-.5-.4-.7-1-.7-1.7,0-1.5.9-2.4,2.6-2.6l2.4-.3c0-1.4-.5-2-1.6-2s-1.8.3-2.6,1v-1.3c.8-.5,1.7-.8,2.7-.8,1.9,0,2.8,1,2.8,3v5.2ZM354,395.7l-1.9.3c-.6,0-1,.2-1.3.4-.3.2-.5.6-.5,1.1s.1.7.4,1c.3.2.6.4,1.1.4s1.2-.2,1.6-.7.6-1,.6-1.7v-.8Z"/>
      <path class="cls-17" d="M361.4,399.6c-.3.2-.7.2-1.2.2-1.4,0-2.1-.8-2.1-2.3v-4.7h-1.4v-1.1h1.4v-2l1.3-.4v2.4h2v1.1h-2v4.5c0,.5,0,.9.3,1.1.2.2.5.3.9.3s.6,0,.8-.3v1.1Z"/>
      <path class="cls-17" d="M369.6,399.7h-1.3v-1.3h0c-.5,1-1.4,1.5-2.5,1.5-1.9,0-2.9-1.1-2.9-3.4v-4.8h1.3v4.6c0,1.7.6,2.5,1.9,2.5s1.1-.2,1.5-.7c.4-.5.6-1.1.6-1.8v-4.6h1.3v8Z"/>
      <path class="cls-17" d="M376.4,393c-.2-.2-.5-.3-1-.3s-1,.3-1.4.8-.6,1.2-.6,2.1v4.1h-1.3v-8h1.3v1.6h0c.2-.6.5-1,.8-1.3s.8-.5,1.3-.5.6,0,.8.1v1.3Z"/>
      <path class="cls-17" d="M378.4,389.7c-.2,0-.4,0-.6-.2-.2-.2-.2-.4-.2-.6s0-.4.2-.6c.2-.2.4-.2.6-.2s.4,0,.6.2.2.4.2.6,0,.4-.2.6-.4.2-.6.2ZM379,399.7h-1.3v-8h1.3v8Z"/>
      <path class="cls-17" d="M385.3,399.6c-.3.2-.7.2-1.2.2-1.4,0-2.1-.8-2.1-2.3v-4.7h-1.4v-1.1h1.4v-2l1.3-.4v2.4h2v1.1h-2v4.5c0,.5,0,.9.3,1.1.2.2.5.3.9.3s.6,0,.8-.3v1.1Z"/>
      <path class="cls-17" d="M393.4,391.7l-3.7,9.3c-.7,1.7-1.6,2.5-2.8,2.5s-.6,0-.8-.1v-1.1c.3,0,.5.1.8.1.6,0,1.1-.4,1.5-1.2l.6-1.5-3.1-8h1.4l2.2,6.2c0,0,0,.3.2.6h0c0-.1,0-.3.2-.6l2.3-6.2h1.3Z"/>
      <path class="cls-17" d="M400.9,396.5c0,.5,0,1-.3,1.4-.2.4-.5.8-.8,1.1-.3.3-.8.5-1.2.7s-1,.2-1.6.2c-1.1,0-1.9-.2-2.5-.6v-1.4c.8.6,1.6.9,2.6.9s.7,0,1.1-.1c.3,0,.6-.2.8-.4s.4-.4.5-.7c.1-.3.2-.6.2-.9,0-1.5-1-2.2-3.1-2.2h-.9v-1.1h.9c1.8,0,2.8-.7,2.8-2.1s-.7-1.9-2.1-1.9-1.5.3-2.2.8v-1.2c.7-.4,1.6-.6,2.5-.6s.9,0,1.3.2c.4.1.7.3,1,.5.3.2.5.5.6.8s.2.7.2,1.1c0,1.5-.7,2.4-2.2,2.8h0c.4,0,.7.2,1.1.3.3.1.6.3.8.6s.4.5.6.8.2.7.2,1Z"/>
      <path class="cls-17" d="M410.1,396.2c0,.5,0,1-.3,1.5-.2.5-.4.9-.7,1.2s-.7.6-1.1.8c-.4.2-.9.3-1.4.3s-1.1-.1-1.5-.4-.8-.6-1.1-1c-.3-.4-.5-1-.7-1.6-.2-.6-.2-1.4-.2-2.1s.1-1.9.3-2.7c.2-.8.5-1.5.9-2s.9-1,1.4-1.3,1.2-.5,1.9-.5,1.4.1,1.9.3v1.2c-.6-.3-1.2-.4-1.8-.4s-1,.1-1.4.3c-.4.2-.7.5-1,.9-.3.4-.5.9-.7,1.5-.2.6-.2,1.2-.2,1.9h0c.5-.9,1.4-1.4,2.6-1.4s.9,0,1.3.2c.4.2.7.4,1,.7.3.3.5.7.6,1.1.2.4.2.9.2,1.4ZM408.8,396.3c0-.4,0-.7-.1-1.1,0-.3-.2-.6-.4-.8-.2-.2-.4-.4-.7-.5-.3-.1-.6-.2-.9-.2s-.6,0-.9.2c-.3.1-.5.3-.7.5-.2.2-.4.4-.5.7-.1.3-.2.6-.2.9s0,.7.2,1.1.3.6.5.9c.2.2.4.4.7.6s.6.2.9.2.6,0,.9-.2.5-.3.7-.5.3-.5.4-.8c.1-.3.2-.6.2-1Z"/>
      <path class="cls-17" d="M418.3,396.3c0,.5,0,1-.3,1.5s-.5.8-.8,1.1c-.3.3-.8.6-1.3.7-.5.2-1,.3-1.6.3-1,0-1.8-.2-2.3-.5v-1.4c.8.5,1.5.7,2.3.7s.8,0,1.1-.2c.3-.1.6-.3.8-.5.2-.2.4-.5.5-.8.1-.3.2-.6.2-1,0-.7-.2-1.3-.7-1.7-.5-.4-1.2-.6-2.1-.6s-.3,0-.5,0c-.2,0-.3,0-.5,0-.2,0-.3,0-.5,0-.2,0-.3,0-.4,0l.4-5.6h5.2v1.2h-4.1l-.2,3.3c.2,0,.3,0,.5,0s.4,0,.5,0c.6,0,1.1,0,1.6.2s.9.4,1.2.7c.3.3.6.6.7,1.1.2.4.3.9.3,1.4Z"/>
      <path class="cls-17" d="M421.8,397.9l-1.2,3.8h-.9l.9-3.8h1.2Z"/>
      <path class="cls-17" d="M429.8,398.6h0v4.8h-1.3v-11.7h1.3v1.4h0c.6-1.1,1.6-1.6,2.8-1.6s1.8.4,2.4,1.1.9,1.7.9,2.9-.3,2.4-1,3.2c-.7.8-1.5,1.2-2.7,1.2s-1.8-.4-2.4-1.3ZM429.8,395.3v1.1c0,.7.2,1.2.6,1.7s1,.7,1.6.7,1.4-.3,1.8-.9c.4-.6.7-1.4.7-2.5s-.2-1.6-.6-2.1c-.4-.5-1-.8-1.7-.8s-1.3.3-1.8.8-.7,1.2-.7,1.9Z"/>
      <path class="cls-17" d="M442.1,393c-.2-.2-.5-.3-1-.3s-1,.3-1.4.8-.6,1.2-.6,2.1v4.1h-1.3v-8h1.3v1.6h0c.2-.6.5-1,.8-1.3s.8-.5,1.3-.5.6,0,.8.1v1.3Z"/>
      <path class="cls-17" d="M444.1,389.7c-.2,0-.4,0-.6-.2-.2-.2-.2-.4-.2-.6s0-.4.2-.6c.2-.2.4-.2.6-.2s.4,0,.6.2.2.4.2.6,0,.4-.2.6-.4.2-.6.2ZM444.8,399.7h-1.3v-8h1.3v8Z"/>
      <path class="cls-17" d="M452.8,399.4c-.6.4-1.3.6-2.2.6s-2.1-.4-2.8-1.1c-.7-.7-1.1-1.7-1.1-2.9s.4-2.4,1.1-3.2c.8-.8,1.8-1.2,3-1.2s1.3.1,1.9.4v1.3c-.6-.4-1.2-.6-1.9-.6s-1.5.3-2,.9-.8,1.4-.8,2.3.2,1.7.7,2.2,1.2.8,2,.8,1.4-.2,2-.7v1.2Z"/>
      <path class="cls-17" d="M461.2,396h-5.6c0,.9.3,1.6.7,2.1.5.5,1.1.7,1.9.7s1.7-.3,2.5-.9v1.2c-.7.5-1.6.8-2.8.8s-2-.4-2.7-1.1c-.6-.7-1-1.7-1-3.1s.4-2.3,1.1-3c.7-.8,1.6-1.2,2.6-1.2s1.9.3,2.4,1c.6.7.9,1.6.9,2.8v.7ZM459.9,395c0-.7-.2-1.3-.5-1.7s-.8-.6-1.5-.6-1.1.2-1.5.6-.7,1-.8,1.7h4.3Z"/>
      <path class="cls-17" d="M469.7,389.3c-.2.3-.4.7-.6,1.1s-.5.9-.8,1.5c-.3.6-.5,1.1-.8,1.8s-.5,1.3-.8,2c-.2.7-.5,1.4-.6,2.1-.2.7-.3,1.4-.4,2.1h-1.4c0-.7.2-1.3.4-2s.4-1.4.7-2c.2-.7.5-1.3.8-1.9.3-.6.5-1.2.8-1.7.3-.5.5-1,.7-1.4.2-.4.4-.7.5-.9h-5.6v-1.2h7.1v.7Z"/>
      <path class="cls-17" d="M478,396.3c0,.5,0,1-.3,1.5s-.5.8-.8,1.1c-.3.3-.8.6-1.3.7-.5.2-1,.3-1.6.3-1,0-1.8-.2-2.3-.5v-1.4c.8.5,1.5.7,2.3.7s.8,0,1.1-.2c.3-.1.6-.3.8-.5.2-.2.4-.5.5-.8.1-.3.2-.6.2-1,0-.7-.2-1.3-.7-1.7-.5-.4-1.2-.6-2.1-.6s-.3,0-.5,0c-.2,0-.3,0-.5,0-.2,0-.3,0-.5,0-.2,0-.3,0-.4,0l.4-5.6h5.2v1.2h-4.1l-.2,3.3c.2,0,.3,0,.5,0s.4,0,.5,0c.6,0,1.1,0,1.6.2s.9.4,1.2.7c.3.3.6.6.7,1.1.2.4.3.9.3,1.4Z"/>
      <path class="cls-17" d="M481.5,397.9l-1.2,3.8h-.9l.9-3.8h1.2Z"/>
      <path class="cls-17" d="M489.5,399.7h-1.3v-11.8h1.3v11.8Z"/>
      <path class="cls-17" d="M492.7,389.7c-.2,0-.4,0-.6-.2-.2-.2-.2-.4-.2-.6s0-.4.2-.6c.2-.2.4-.2.6-.2s.4,0,.6.2.2.4.2.6,0,.4-.2.6-.4.2-.6.2ZM493.4,399.7h-1.3v-8h1.3v8Z"/>
      <path class="cls-17" d="M502.8,403.4h-1.3v-5.1h0c-.6,1-1.5,1.6-2.7,1.6s-1.8-.4-2.4-1.1c-.6-.7-.9-1.7-.9-2.9s.3-2.4,1-3.2c.7-.8,1.6-1.2,2.7-1.2s1.9.4,2.4,1.3h0v-1.1h1.3v11.7ZM501.5,396.1v-1.2c0-.7-.2-1.2-.6-1.7s-1-.7-1.6-.7-1.4.3-1.8.9c-.4.6-.7,1.4-.7,2.4s.2,1.6.6,2.2c.4.5,1,.8,1.7.8s1.3-.3,1.8-.8.7-1.2.7-1.9Z"/>
      <path class="cls-17" d="M511.9,399.7h-1.3v-1.3h0c-.5,1-1.4,1.5-2.5,1.5-1.9,0-2.9-1.1-2.9-3.4v-4.8h1.3v4.6c0,1.7.6,2.5,1.9,2.5s1.1-.2,1.5-.7c.4-.5.6-1.1.6-1.8v-4.6h1.3v8Z"/>
      <path class="cls-17" d="M515.1,389.7c-.2,0-.4,0-.6-.2-.2-.2-.2-.4-.2-.6s0-.4.2-.6c.2-.2.4-.2.6-.2s.4,0,.6.2.2.4.2.6,0,.4-.2.6-.4.2-.6.2ZM515.7,399.7h-1.3v-8h1.3v8Z"/>
      <path class="cls-17" d="M525.1,399.7h-1.3v-1.4h0c-.6,1-1.5,1.5-2.8,1.5s-1.8-.4-2.4-1.1-.9-1.7-.9-2.9.3-2.4,1-3.2c.7-.8,1.6-1.2,2.7-1.2s1.9.4,2.4,1.3h0v-5h1.3v11.8ZM523.9,396.1v-1.2c0-.6-.2-1.2-.6-1.6-.4-.4-1-.7-1.6-.7s-1.4.3-1.8.9c-.4.6-.7,1.4-.7,2.4s.2,1.6.6,2.2,1,.8,1.7.8,1.3-.3,1.7-.8.7-1.2.7-2Z"/>
      <path class="cls-17" d="M528.4,389.7c-.2,0-.4,0-.6-.2-.2-.2-.2-.4-.2-.6s0-.4.2-.6c.2-.2.4-.2.6-.2s.4,0,.6.2.2.4.2.6,0,.4-.2.6-.4.2-.6.2ZM529,399.7h-1.3v-8h1.3v8Z"/>
      <path class="cls-17" d="M535.3,399.6c-.3.2-.7.2-1.2.2-1.4,0-2.1-.8-2.1-2.3v-4.7h-1.4v-1.1h1.4v-2l1.3-.4v2.4h2v1.1h-2v4.5c0,.5,0,.9.3,1.1.2.2.5.3.9.3s.6,0,.8-.3v1.1Z"/>
      <path class="cls-17" d="M543.4,391.7l-3.7,9.3c-.7,1.7-1.6,2.5-2.8,2.5s-.6,0-.8-.1v-1.1c.3,0,.5.1.8.1.6,0,1.1-.4,1.5-1.2l.6-1.5-3.1-8h1.4l2.2,6.2c0,0,0,.3.2.6h0c0-.1,0-.3.2-.6l2.3-6.2h1.3Z"/>
      <path class="cls-17" d="M553.1,389c-.2-.1-.5-.2-.9-.2-.9,0-1.3.6-1.3,1.7v1.2h1.9v1.1h-1.9v6.9h-1.3v-6.9h-1.4v-1.1h1.4v-1.3c0-.8.2-1.5.7-2s1.1-.7,1.8-.7.7,0,.9.1v1.2Z"/>
      <path class="cls-17" d="M554.8,389.7c-.2,0-.4,0-.6-.2-.2-.2-.2-.4-.2-.6s0-.4.2-.6c.2-.2.4-.2.6-.2s.4,0,.6.2.2.4.2.6,0,.4-.2.6-.4.2-.6.2ZM555.4,399.7h-1.3v-8h1.3v8Z"/>
      <path class="cls-17" d="M559.3,399.7h-1.3v-11.8h1.3v11.8Z"/>
      <path class="cls-17" d="M565.6,399.6c-.3.2-.7.2-1.2.2-1.4,0-2.1-.8-2.1-2.3v-4.7h-1.4v-1.1h1.4v-2l1.3-.4v2.4h2v1.1h-2v4.5c0,.5,0,.9.3,1.1.2.2.5.3.9.3s.6,0,.8-.3v1.1Z"/>
      <path class="cls-17" d="M573.8,396h-5.6c0,.9.3,1.6.7,2.1.5.5,1.1.7,1.9.7s1.7-.3,2.5-.9v1.2c-.7.5-1.6.8-2.8.8s-2-.4-2.7-1.1c-.6-.7-1-1.7-1-3.1s.4-2.3,1.1-3c.7-.8,1.6-1.2,2.6-1.2s1.9.3,2.4,1c.6.7.9,1.6.9,2.8v.7ZM572.5,395c0-.7-.2-1.3-.5-1.7s-.8-.6-1.5-.6-1.1.2-1.5.6-.7,1-.8,1.7h4.3Z"/>
      <path class="cls-17" d="M579.9,393c-.2-.2-.5-.3-1-.3s-1,.3-1.4.8-.6,1.2-.6,2.1v4.1h-1.3v-8h1.3v1.6h0c.2-.6.5-1,.8-1.3s.8-.5,1.3-.5.6,0,.8.1v1.3Z"/>
      <path class="cls-17" d="M580.8,399.4v-1.4c.7.5,1.5.8,2.3.8s1.7-.4,1.7-1.1,0-.4-.1-.5c0-.1-.2-.3-.4-.4s-.4-.2-.6-.3c-.2,0-.5-.2-.7-.3-.4-.1-.7-.3-.9-.4-.3-.1-.5-.3-.7-.5s-.3-.4-.4-.6c0-.2-.1-.5-.1-.8s0-.7.3-1,.4-.5.7-.7c.3-.2.6-.3,1-.4s.7-.1,1.1-.1c.7,0,1.3.1,1.9.4v1.3c-.6-.4-1.3-.6-2-.6s-.5,0-.6,0c-.2,0-.4.1-.5.2-.1,0-.2.2-.3.4,0,.1-.1.3-.1.5s0,.4.1.5c0,.1.2.3.3.4.1.1.3.2.5.3.2,0,.4.2.7.3.4.1.7.3,1,.4s.5.3.7.5c.2.2.4.4.5.6.1.2.2.5.2.8s0,.7-.3,1c-.2.3-.4.5-.7.7-.3.2-.6.3-1,.4-.4,0-.8.1-1.2.1-.8,0-1.5-.2-2.1-.5Z"/>
      <path class="cls-17" d="M589.2,397.9l-1.2,3.8h-.9l.9-3.8h1.2Z"/>
      <path class="cls-17" d="M601.6,399.7h-1.3v-1.2h0c-.6,1-1.4,1.4-2.5,1.4s-1.4-.2-1.9-.6c-.5-.4-.7-1-.7-1.7,0-1.5.9-2.4,2.6-2.6l2.4-.3c0-1.4-.5-2-1.6-2s-1.8.3-2.6,1v-1.3c.8-.5,1.7-.8,2.7-.8,1.9,0,2.8,1,2.8,3v5.2ZM600.4,395.7l-1.9.3c-.6,0-1,.2-1.3.4-.3.2-.5.6-.5,1.1s.1.7.4,1c.3.2.6.4,1.1.4s1.2-.2,1.6-.7.6-1,.6-1.7v-.8Z"/>
      <path class="cls-17" d="M610.7,399.7h-1.3v-4.6c0-1.7-.6-2.5-1.9-2.5s-1.2.2-1.6.7c-.4.5-.6,1.1-.6,1.8v4.6h-1.3v-8h1.3v1.3h0c.6-1,1.5-1.5,2.6-1.5s1.5.3,2,.8c.5.6.7,1.4.7,2.4v4.9Z"/>
      <path class="cls-17" d="M619.9,399.7h-1.3v-1.4h0c-.6,1-1.5,1.5-2.8,1.5s-1.8-.4-2.4-1.1-.9-1.7-.9-2.9.3-2.4,1-3.2c.7-.8,1.6-1.2,2.7-1.2s1.9.4,2.4,1.3h0v-5h1.3v11.8ZM618.6,396.1v-1.2c0-.6-.2-1.2-.6-1.6-.4-.4-1-.7-1.6-.7s-1.4.3-1.8.9c-.4.6-.7,1.4-.7,2.4s.2,1.6.6,2.2,1,.8,1.7.8,1.3-.3,1.7-.8.7-1.2.7-2Z"/>
      <path class="cls-17" d="M633.7,399.7h-1.3v-1.4h0c-.6,1-1.5,1.5-2.8,1.5s-1.8-.4-2.4-1.1-.9-1.7-.9-2.9.3-2.4,1-3.2c.7-.8,1.6-1.2,2.7-1.2s1.9.4,2.4,1.3h0v-5h1.3v11.8ZM632.5,396.1v-1.2c0-.6-.2-1.2-.6-1.6-.4-.4-1-.7-1.6-.7s-1.4.3-1.8.9c-.4.6-.7,1.4-.7,2.4s.2,1.6.6,2.2,1,.8,1.7.8,1.3-.3,1.7-.8.7-1.2.7-2Z"/>
      <path class="cls-17" d="M642.8,396h-5.6c0,.9.3,1.6.7,2.1s1.1.7,1.9.7,1.7-.3,2.5-.9v1.2c-.7.5-1.6.8-2.8.8s-2-.4-2.7-1.1-1-1.7-1-3.1.4-2.3,1.1-3,1.6-1.2,2.6-1.2,1.9.3,2.4,1,.9,1.6.9,2.8v.7ZM641.4,395c0-.7-.2-1.3-.5-1.7s-.8-.6-1.5-.6-1.1.2-1.5.6-.7,1-.8,1.7h4.3Z"/>
      <path class="cls-17" d="M648.6,389c-.2-.1-.5-.2-.9-.2-.9,0-1.3.6-1.3,1.7v1.2h1.9v1.1h-1.9v6.9h-1.3v-6.9h-1.4v-1.1h1.4v-1.3c0-.8.2-1.5.7-2s1.1-.7,1.8-.7.7,0,.9.1v1.2Z"/>
      <path class="cls-17" d="M656.1,396h-5.6c0,.9.3,1.6.7,2.1s1.1.7,1.9.7,1.7-.3,2.5-.9v1.2c-.7.5-1.6.8-2.8.8s-2-.4-2.7-1.1-1-1.7-1-3.1.4-2.3,1.1-3,1.6-1.2,2.6-1.2,1.9.3,2.4,1,.9,1.6.9,2.8v.7ZM654.8,395c0-.7-.2-1.3-.5-1.7s-.8-.6-1.5-.6-1.1.2-1.5.6-.7,1-.8,1.7h4.3Z"/>
      <path class="cls-17" d="M664.7,399.7h-1.3v-4.6c0-1.7-.6-2.5-1.9-2.5s-1.2.2-1.6.7-.6,1.1-.6,1.8v4.6h-1.3v-8h1.3v1.3h0c.6-1,1.5-1.5,2.6-1.5s1.5.3,2,.8.7,1.4.7,2.4v4.9Z"/>
      <path class="cls-17" d="M666.6,399.4v-1.4c.7.5,1.5.8,2.3.8s1.7-.4,1.7-1.1,0-.4-.1-.5-.2-.3-.4-.4-.4-.2-.6-.3-.5-.2-.7-.3c-.4-.1-.7-.3-.9-.4s-.5-.3-.7-.5-.3-.4-.4-.6-.1-.5-.1-.8,0-.7.3-1,.4-.5.7-.7.6-.3,1-.4.7-.1,1.1-.1c.7,0,1.3.1,1.9.4v1.3c-.6-.4-1.3-.6-2-.6s-.5,0-.6,0-.4.1-.5.2-.2.2-.3.4-.1.3-.1.5,0,.4.1.5.2.3.3.4.3.2.5.3.4.2.7.3c.4.1.7.3,1,.4s.5.3.7.5.4.4.5.6.2.5.2.8,0,.7-.3,1-.4.5-.7.7-.6.3-1,.4-.8.1-1.2.1c-.8,0-1.5-.2-2.1-.5Z"/>
      <path class="cls-17" d="M674.6,389.7c-.2,0-.4,0-.6-.2s-.2-.4-.2-.6,0-.4.2-.6.4-.2.6-.2.4,0,.6.2.2.4.2.6,0,.4-.2.6-.4.2-.6.2ZM675.2,399.7h-1.3v-8h1.3v8Z"/>
      <path class="cls-17" d="M684.1,391.7l-3.2,8h-1.3l-3-8h1.4l2,5.8c.2.4.2.8.3,1.1h0c0-.4.1-.8.2-1.1l2.1-5.8h1.4Z"/>
      <path class="cls-17" d="M691.9,396h-5.6c0,.9.3,1.6.7,2.1s1.1.7,1.9.7,1.7-.3,2.5-.9v1.2c-.7.5-1.6.8-2.8.8s-2-.4-2.7-1.1-1-1.7-1-3.1.4-2.3,1.1-3,1.6-1.2,2.6-1.2,1.9.3,2.4,1,.9,1.6.9,2.8v.7ZM690.6,395c0-.7-.2-1.3-.5-1.7s-.8-.6-1.5-.6-1.1.2-1.5.6-.7,1-.8,1.7h4.3Z"/>
      <path class="cls-17" d="M697.7,399.4v-1.4c.7.5,1.5.8,2.3.8s1.7-.4,1.7-1.1,0-.4-.1-.5-.2-.3-.4-.4-.4-.2-.6-.3-.5-.2-.7-.3c-.4-.1-.7-.3-.9-.4s-.5-.3-.7-.5-.3-.4-.4-.6-.1-.5-.1-.8,0-.7.3-1,.4-.5.7-.7.6-.3,1-.4.7-.1,1.1-.1c.7,0,1.3.1,1.9.4v1.3c-.6-.4-1.3-.6-2-.6s-.5,0-.6,0-.4.1-.5.2-.2.2-.3.4-.1.3-.1.5,0,.4.1.5.2.3.3.4.3.2.5.3.4.2.7.3c.4.1.7.3,1,.4s.5.3.7.5.4.4.5.6.2.5.2.8,0,.7-.3,1-.4.5-.7.7-.6.3-1,.4-.8.1-1.2.1c-.8,0-1.5-.2-2.1-.5Z"/>
      <path class="cls-17" d="M706.3,399.7h-1.3v-11.8h1.3v11.8Z"/>
      <path class="cls-17" d="M715.3,396h-5.6c0,.9.3,1.6.7,2.1s1.1.7,1.9.7,1.7-.3,2.5-.9v1.2c-.7.5-1.6.8-2.8.8s-2-.4-2.7-1.1-1-1.7-1-3.1.4-2.3,1.1-3,1.6-1.2,2.6-1.2,1.9.3,2.4,1,.9,1.6.9,2.8v.7ZM714,395c0-.7-.2-1.3-.5-1.7s-.8-.6-1.5-.6-1.1.2-1.5.6-.7,1-.8,1.7h4.3Z"/>
      <path class="cls-17" d="M723.7,396h-5.6c0,.9.3,1.6.7,2.1s1.1.7,1.9.7,1.7-.3,2.5-.9v1.2c-.7.5-1.6.8-2.8.8s-2-.4-2.7-1.1-1-1.7-1-3.1.4-2.3,1.1-3,1.6-1.2,2.6-1.2,1.9.3,2.4,1,.9,1.6.9,2.8v.7ZM722.4,395c0-.7-.2-1.3-.5-1.7s-.8-.6-1.5-.6-1.1.2-1.5.6-.7,1-.8,1.7h4.3Z"/>
      <path class="cls-17" d="M731.9,391.7l-3.2,8h-1.3l-3-8h1.4l2,5.8c.2.4.2.8.3,1.1h0c0-.4.1-.8.2-1.1l2.1-5.8h1.4Z"/>
      <path class="cls-17" d="M739.7,396h-5.6c0,.9.3,1.6.7,2.1s1.1.7,1.9.7,1.7-.3,2.5-.9v1.2c-.7.5-1.6.8-2.8.8s-2-.4-2.7-1.1-1-1.7-1-3.1.4-2.3,1.1-3,1.6-1.2,2.6-1.2,1.9.3,2.4,1,.9,1.6.9,2.8v.7ZM738.4,395c0-.7-.2-1.3-.5-1.7s-.8-.6-1.5-.6-1.1.2-1.5.6-.7,1-.8,1.7h4.3Z"/>
      <path class="cls-17" d="M741.1,399.4v-1.4c.7.5,1.5.8,2.3.8s1.7-.4,1.7-1.1,0-.4-.1-.5-.2-.3-.4-.4-.4-.2-.6-.3-.5-.2-.7-.3c-.4-.1-.7-.3-.9-.4s-.5-.3-.7-.5-.3-.4-.4-.6-.1-.5-.1-.8,0-.7.3-1,.4-.5.7-.7.6-.3,1-.4.7-.1,1.1-.1c.7,0,1.3.1,1.9.4v1.3c-.6-.4-1.3-.6-2-.6s-.5,0-.6,0-.4.1-.5.2-.2.2-.3.4-.1.3-.1.5,0,.4.1.5.2.3.3.4.3.2.5.3.4.2.7.3c.4.1.7.3,1,.4s.5.3.7.5.4.4.5.6.2.5.2.8,0,.7-.3,1-.4.5-.7.7-.6.3-1,.4-.8.1-1.2.1c-.8,0-1.5-.2-2.1-.5Z"/>
      <path class="cls-17" d="M752.3,399.4v-1.4c.7.5,1.5.8,2.3.8s1.7-.4,1.7-1.1,0-.4-.1-.5-.2-.3-.4-.4-.4-.2-.6-.3-.5-.2-.7-.3c-.4-.1-.7-.3-.9-.4s-.5-.3-.7-.5-.3-.4-.4-.6-.1-.5-.1-.8,0-.7.3-1,.4-.5.7-.7.6-.3,1-.4.7-.1,1.1-.1c.7,0,1.3.1,1.9.4v1.3c-.6-.4-1.3-.6-2-.6s-.5,0-.6,0-.4.1-.5.2-.2.2-.3.4-.1.3-.1.5,0,.4.1.5.2.3.3.4.3.2.5.3.4.2.7.3c.4.1.7.3,1,.4s.5.3.7.5.4.4.5.6.2.5.2.8,0,.7-.3,1-.4.5-.7.7-.6.3-1,.4-.8.1-1.2.1c-.8,0-1.5-.2-2.1-.5Z"/>
      <path class="cls-17" d="M763.3,399.6c-.3.2-.7.2-1.2.2-1.4,0-2.1-.8-2.1-2.3v-4.7h-1.4v-1.1h1.4v-2l1.3-.4v2.4h2v1.1h-2v4.5c0,.5,0,.9.3,1.1s.5.3.9.3.6,0,.8-.3v1.1Z"/>
      <path class="cls-17" d="M770.7,399.7h-1.3v-1.2h0c-.6,1-1.4,1.4-2.5,1.4s-1.4-.2-1.9-.6-.7-1-.7-1.7c0-1.5.9-2.4,2.6-2.6l2.4-.3c0-1.4-.5-2-1.6-2s-1.8.3-2.6,1v-1.3c.8-.5,1.7-.8,2.7-.8,1.9,0,2.8,1,2.8,3v5.2ZM769.5,395.7l-1.9.3c-.6,0-1,.2-1.3.4s-.5.6-.5,1.1.1.7.4,1,.6.4,1.1.4,1.2-.2,1.6-.7.6-1,.6-1.7v-.8Z"/>
      <path class="cls-17" d="M779.5,391.7l-3.7,9.3c-.7,1.7-1.6,2.5-2.8,2.5s-.6,0-.8-.1v-1.1c.3,0,.5.1.8.1.6,0,1.1-.4,1.5-1.2l.6-1.5-3.1-8h1.4l2.2,6.2c0,0,0,.3.2.6h0c0-.1,0-.3.2-.6l2.3-6.2h1.3Z"/>
      <path class="cls-17" d="M791,399.7h-1.3v-1.2h0c-.6,1-1.4,1.4-2.5,1.4s-1.4-.2-1.9-.6-.7-1-.7-1.7c0-1.5.9-2.4,2.6-2.6l2.4-.3c0-1.4-.5-2-1.6-2s-1.8.3-2.6,1v-1.3c.8-.5,1.7-.8,2.7-.8,1.9,0,2.8,1,2.8,3v5.2ZM789.7,395.7l-1.9.3c-.6,0-1,.2-1.3.4s-.5.6-.5,1.1.1.7.4,1,.6.4,1.1.4,1.2-.2,1.6-.7.6-1,.6-1.7v-.8Z"/>
      <path class="cls-17" d="M797.6,393c-.2-.2-.5-.3-1-.3s-1,.3-1.4.8-.6,1.2-.6,2.1v4.1h-1.3v-8h1.3v1.6h0c.2-.6.5-1,.8-1.3s.8-.5,1.3-.5.6,0,.8.1v1.3Z"/>
      <path class="cls-17" d="M804.4,399.4c-.6.4-1.3.6-2.2.6s-2.1-.4-2.8-1.1-1.1-1.7-1.1-2.9.4-2.4,1.1-3.2,1.8-1.2,3-1.2,1.3.1,1.9.4v1.3c-.6-.4-1.2-.6-1.9-.6s-1.5.3-2,.9-.8,1.4-.8,2.3.2,1.7.7,2.2,1.2.8,2,.8,1.4-.2,2-.7v1.2Z"/>
      <path class="cls-17" d="M813,399.7h-1.3v-4.6c0-1.7-.6-2.5-1.9-2.5s-1.2.2-1.6.7-.6,1.1-.6,1.9v4.5h-1.3v-11.8h1.3v5.2h0c.6-1,1.5-1.5,2.6-1.5,1.8,0,2.7,1.1,2.7,3.3v4.9Z"/>
      <path class="cls-17" d="M816.1,389.7c-.2,0-.4,0-.6-.2s-.2-.4-.2-.6,0-.4.2-.6.4-.2.6-.2.4,0,.6.2.2.4.2.6,0,.4-.2.6-.4.2-.6.2ZM816.7,399.7h-1.3v-8h1.3v8Z"/>
      <path class="cls-17" d="M825.6,391.7l-3.2,8h-1.3l-3-8h1.4l2,5.8c.2.4.2.8.3,1.1h0c0-.4.1-.8.2-1.1l2.1-5.8h1.4Z"/>
      <path class="cls-17" d="M833.4,396h-5.6c0,.9.3,1.6.7,2.1s1.1.7,1.9.7,1.7-.3,2.5-.9v1.2c-.7.5-1.6.8-2.8.8s-2-.4-2.7-1.1-1-1.7-1-3.1.4-2.3,1.1-3,1.6-1.2,2.6-1.2,1.9.3,2.4,1,.9,1.6.9,2.8v.7ZM832.1,395c0-.7-.2-1.3-.5-1.7s-.8-.6-1.5-.6-1.1.2-1.5.6-.7,1-.8,1.7h4.3Z"/>
      <path class="cls-17" d="M842.2,399.7h-1.3v-1.4h0c-.6,1-1.5,1.5-2.8,1.5s-1.8-.4-2.4-1.1-.9-1.7-.9-2.9.3-2.4,1-3.2,1.6-1.2,2.7-1.2,1.9.4,2.4,1.3h0v-5h1.3v11.8ZM840.9,396.1v-1.2c0-.6-.2-1.2-.6-1.6s-1-.7-1.6-.7-1.4.3-1.8.9-.7,1.4-.7,2.4.2,1.6.6,2.2,1,.8,1.7.8,1.3-.3,1.7-.8.7-1.2.7-2Z"/>
      <path class="cls-17" d="M855.6,399.7h-1.3v-1.3h0c-.5,1-1.4,1.5-2.5,1.5-1.9,0-2.9-1.1-2.9-3.4v-4.8h1.3v4.6c0,1.7.6,2.5,1.9,2.5s1.1-.2,1.5-.7.6-1.1.6-1.8v-4.6h1.3v8Z"/>
      <path class="cls-17" d="M864.8,399.7h-1.3v-4.6c0-1.7-.6-2.5-1.9-2.5s-1.2.2-1.6.7-.6,1.1-.6,1.8v4.6h-1.3v-8h1.3v1.3h0c.6-1,1.5-1.5,2.6-1.5s1.5.3,2,.8.7,1.4.7,2.4v4.9Z"/>
      <path class="cls-17" d="M868.5,399.7h-1.3v-11.8h1.3v11.8Z"/>
      <path class="cls-17" d="M877.6,396h-5.6c0,.9.3,1.6.7,2.1s1.1.7,1.9.7,1.7-.3,2.5-.9v1.2c-.7.5-1.6.8-2.8.8s-2-.4-2.7-1.1-1-1.7-1-3.1.4-2.3,1.1-3,1.6-1.2,2.6-1.2,1.9.3,2.4,1,.9,1.6.9,2.8v.7ZM876.2,395c0-.7-.2-1.3-.5-1.7s-.8-.6-1.5-.6-1.1.2-1.5.6-.7,1-.8,1.7h4.3Z"/>
      <path class="cls-17" d="M879,399.4v-1.4c.7.5,1.5.8,2.3.8s1.7-.4,1.7-1.1,0-.4-.1-.5-.2-.3-.4-.4-.4-.2-.6-.3-.5-.2-.7-.3c-.4-.1-.7-.3-.9-.4s-.5-.3-.7-.5-.3-.4-.4-.6-.1-.5-.1-.8,0-.7.3-1,.4-.5.7-.7.6-.3,1-.4.7-.1,1.1-.1c.7,0,1.3.1,1.9.4v1.3c-.6-.4-1.3-.6-2-.6s-.5,0-.6,0-.4.1-.5.2-.2.2-.3.4-.1.3-.1.5,0,.4.1.5.2.3.3.4.3.2.5.3.4.2.7.3c.4.1.7.3,1,.4s.5.3.7.5.4.4.5.6.2.5.2.8,0,.7-.3,1-.4.5-.7.7-.6.3-1,.4-.8.1-1.2.1c-.8,0-1.5-.2-2.1-.5Z"/>
      <path class="cls-17" d="M885.8,399.4v-1.4c.7.5,1.5.8,2.3.8s1.7-.4,1.7-1.1,0-.4-.1-.5-.2-.3-.4-.4-.4-.2-.6-.3-.5-.2-.7-.3c-.4-.1-.7-.3-.9-.4s-.5-.3-.7-.5-.3-.4-.4-.6-.1-.5-.1-.8,0-.7.3-1,.4-.5.7-.7.6-.3,1-.4.7-.1,1.1-.1c.7,0,1.3.1,1.9.4v1.3c-.6-.4-1.3-.6-2-.6s-.5,0-.6,0-.4.1-.5.2-.2.2-.3.4-.1.3-.1.5,0,.4.1.5.2.3.3.4.3.2.5.3.4.2.7.3c.4.1.7.3,1,.4s.5.3.7.5.4.4.5.6.2.5.2.8,0,.7-.3,1-.4.5-.7.7-.6.3-1,.4-.8.1-1.2.1c-.8,0-1.5-.2-2.1-.5Z"/>
      <path class="cls-17" d="M901.2,399.6c-.3.2-.7.2-1.2.2-1.4,0-2.1-.8-2.1-2.3v-4.7h-1.4v-1.1h1.4v-2l1.3-.4v2.4h2v1.1h-2v4.5c0,.5,0,.9.3,1.1s.5.3.9.3.6,0,.8-.3v1.1Z"/>
      <path class="cls-17" d="M909.5,399.7h-1.3v-4.6c0-1.7-.6-2.5-1.9-2.5s-1.2.2-1.6.7-.6,1.1-.6,1.9v4.5h-1.3v-11.8h1.3v5.2h0c.6-1,1.5-1.5,2.6-1.5,1.8,0,2.7,1.1,2.7,3.3v4.9Z"/>
      <path class="cls-17" d="M918.4,396h-5.6c0,.9.3,1.6.7,2.1s1.1.7,1.9.7,1.7-.3,2.5-.9v1.2c-.7.5-1.6.8-2.8.8s-2-.4-2.7-1.1-1-1.7-1-3.1.4-2.3,1.1-3,1.6-1.2,2.6-1.2,1.9.3,2.4,1,.9,1.6.9,2.8v.7ZM917,395c0-.7-.2-1.3-.5-1.7s-.8-.6-1.5-.6-1.1.2-1.5.6-.7,1-.8,1.7h4.3Z"/>
      <path class="cls-17" d="M926.7,391.7l-3.7,9.3c-.7,1.7-1.6,2.5-2.8,2.5s-.6,0-.8-.1v-1.1c.3,0,.5.1.8.1.6,0,1.1-.4,1.5-1.2l.6-1.5-3.1-8h1.4l2.2,6.2c0,0,0,.3.2.6h0c0-.1,0-.3.2-.6l2.3-6.2h1.3Z"/>
      <path class="cls-17" d="M933.7,398.6h0v4.8h-1.3v-11.7h1.3v1.4h0c.6-1.1,1.6-1.6,2.8-1.6s1.8.4,2.4,1.1.9,1.7.9,2.9-.3,2.4-1,3.2-1.5,1.2-2.7,1.2-1.8-.4-2.4-1.3ZM933.7,395.3v1.1c0,.7.2,1.2.6,1.7s1,.7,1.6.7,1.4-.3,1.8-.9.7-1.4.7-2.5-.2-1.6-.6-2.1-1-.8-1.7-.8-1.3.3-1.8.8-.7,1.2-.7,1.9Z"/>
      <path class="cls-17" d="M947.6,399.7h-1.3v-1.2h0c-.6,1-1.4,1.4-2.5,1.4s-1.4-.2-1.9-.6-.7-1-.7-1.7c0-1.5.9-2.4,2.6-2.6l2.4-.3c0-1.4-.5-2-1.6-2s-1.8.3-2.6,1v-1.3c.8-.5,1.7-.8,2.7-.8,1.9,0,2.8,1,2.8,3v5.2ZM946.3,395.7l-1.9.3c-.6,0-1,.2-1.3.4s-.5.6-.5,1.1.1.7.4,1,.6.4,1.1.4,1.2-.2,1.6-.7.6-1,.6-1.7v-.8Z"/>
      <path class="cls-17" d="M949.5,399.4v-1.4c.7.5,1.5.8,2.3.8s1.7-.4,1.7-1.1,0-.4-.1-.5-.2-.3-.4-.4-.4-.2-.6-.3-.5-.2-.7-.3c-.4-.1-.7-.3-.9-.4s-.5-.3-.7-.5-.3-.4-.4-.6-.1-.5-.1-.8,0-.7.3-1,.4-.5.7-.7.6-.3,1-.4.7-.1,1.1-.1c.7,0,1.3.1,1.9.4v1.3c-.6-.4-1.3-.6-2-.6s-.5,0-.6,0-.4.1-.5.2-.2.2-.3.4-.1.3-.1.5,0,.4.1.5.2.3.3.4.3.2.5.3.4.2.7.3c.4.1.7.3,1,.4s.5.3.7.5.4.4.5.6.2.5.2.8,0,.7-.3,1-.4.5-.7.7-.6.3-1,.4-.8.1-1.2.1c-.8,0-1.5-.2-2.1-.5Z"/>
      <path class="cls-17" d="M956.3,399.4v-1.4c.7.5,1.5.8,2.3.8s1.7-.4,1.7-1.1,0-.4-.1-.5-.2-.3-.4-.4-.4-.2-.6-.3-.5-.2-.7-.3c-.4-.1-.7-.3-.9-.4s-.5-.3-.7-.5-.3-.4-.4-.6-.1-.5-.1-.8,0-.7.3-1,.4-.5.7-.7.6-.3,1-.4.7-.1,1.1-.1c.7,0,1.3.1,1.9.4v1.3c-.6-.4-1.3-.6-2-.6s-.5,0-.6,0-.4.1-.5.2-.2.2-.3.4-.1.3-.1.5,0,.4.1.5.2.3.3.4.3.2.5.3.4.2.7.3c.4.1.7.3,1,.4s.5.3.7.5.4.4.5.6.2.5.2.8,0,.7-.3,1-.4.5-.7.7-.6.3-1,.4-.8.1-1.2.1c-.8,0-1.5-.2-2.1-.5Z"/>
      <path class="cls-17" d="M979.3,399.7h-1.3v-4.6c0-.9-.1-1.5-.4-1.9s-.7-.6-1.4-.6-1,.2-1.4.8-.6,1.1-.6,1.8v4.6h-1.3v-4.8c0-1.6-.6-2.4-1.8-2.4s-1,.2-1.4.7-.5,1.1-.5,1.8v4.6h-1.3v-8h1.3v1.3h0c.6-1,1.4-1.5,2.5-1.5s1,.2,1.4.5.7.7.8,1.2c.6-1.1,1.5-1.7,2.7-1.7,1.8,0,2.6,1.1,2.6,3.3v4.9Z"/>
      <path class="cls-17" d="M988.1,396h-5.6c0,.9.3,1.6.7,2.1s1.1.7,1.9.7,1.7-.3,2.5-.9v1.2c-.7.5-1.6.8-2.8.8s-2-.4-2.7-1.1-1-1.7-1-3.1.4-2.3,1.1-3,1.6-1.2,2.6-1.2,1.9.3,2.4,1,.9,1.6.9,2.8v.7ZM986.8,395c0-.7-.2-1.3-.5-1.7s-.8-.6-1.5-.6-1.1.2-1.5.6-.7,1-.8,1.7h4.3Z"/>
      <path class="cls-17" d="M995.5,399.4c-.6.4-1.3.6-2.2.6s-2.1-.4-2.8-1.1-1.1-1.7-1.1-2.9.4-2.4,1.1-3.2,1.8-1.2,3-1.2,1.3.1,1.9.4v1.3c-.6-.4-1.2-.6-1.9-.6s-1.5.3-2,.9-.8,1.4-.8,2.3.2,1.7.7,2.2,1.2.8,2,.8,1.4-.2,2-.7v1.2Z"/>
      <path class="cls-17" d="M1004.1,399.7h-1.3v-4.6c0-1.7-.6-2.5-1.9-2.5s-1.2.2-1.6.7-.6,1.1-.6,1.9v4.5h-1.3v-11.8h1.3v5.2h0c.6-1,1.5-1.5,2.6-1.5,1.8,0,2.7,1.1,2.7,3.3v4.9Z"/>
      <path class="cls-17" d="M1012.2,399.7h-1.3v-1.2h0c-.6,1-1.4,1.4-2.5,1.4s-1.4-.2-1.9-.6-.7-1-.7-1.7c0-1.5.9-2.4,2.6-2.6l2.4-.3c0-1.4-.5-2-1.6-2s-1.8.3-2.6,1v-1.3c.8-.5,1.7-.8,2.7-.8,1.9,0,2.8,1,2.8,3v5.2ZM1011,395.7l-1.9.3c-.6,0-1,.2-1.3.4s-.5.6-.5,1.1.1.7.4,1,.6.4,1.1.4,1.2-.2,1.6-.7.6-1,.6-1.7v-.8Z"/>
      <path class="cls-17" d="M1018.8,395.8h-4.3v-1h4.3v1Z"/>
      <path class="cls-17" d="M246.7,418.9h-1.3v-4.6c0-1.7-.6-2.5-1.9-2.5s-1.2.2-1.6.7c-.4.5-.6,1.1-.6,1.8v4.6h-1.3v-8h1.3v1.3h0c.6-1,1.5-1.5,2.6-1.5s1.5.3,2,.8c.5.6.7,1.4.7,2.4v4.9Z"/>
      <path class="cls-17" d="M249.7,408.9c-.2,0-.4,0-.6-.2-.2-.2-.2-.4-.2-.6s0-.4.2-.6c.2-.2.4-.2.6-.2s.4,0,.6.2.2.4.2.6,0,.4-.2.6-.4.2-.6.2ZM250.4,418.9h-1.3v-8h1.3v8Z"/>
      <path class="cls-17" d="M252.5,418.6v-1.4c.7.5,1.5.8,2.3.8s1.7-.4,1.7-1.1,0-.4-.1-.5c0-.1-.2-.3-.4-.4s-.4-.2-.6-.3c-.2,0-.5-.2-.7-.3-.4-.1-.7-.3-.9-.4-.3-.1-.5-.3-.7-.5s-.3-.4-.4-.6c0-.2-.1-.5-.1-.8s0-.7.3-1,.4-.5.7-.7c.3-.2.6-.3,1-.4s.7-.1,1.1-.1c.7,0,1.3.1,1.9.4v1.3c-.6-.4-1.3-.6-2-.6s-.5,0-.6,0c-.2,0-.4.1-.5.2-.1,0-.2.2-.3.4,0,.1-.1.3-.1.5s0,.4.1.5c0,.1.2.3.3.4.1.1.3.2.5.3.2,0,.4.2.7.3.4.1.7.3,1,.4s.5.3.7.5c.2.2.4.4.5.6.1.2.2.5.2.8s0,.7-.3,1c-.2.3-.4.5-.7.7-.3.2-.6.3-1,.4-.4,0-.8.1-1.2.1-.8,0-1.5-.2-2.1-.5Z"/>
      <path class="cls-17" d="M271.1,418.9h-1.3v-4.6c0-.9-.1-1.5-.4-1.9s-.7-.6-1.4-.6-1,.2-1.4.8-.6,1.1-.6,1.8v4.6h-1.3v-4.8c0-1.6-.6-2.4-1.8-2.4s-1,.2-1.4.7c-.4.5-.5,1.1-.5,1.8v4.6h-1.3v-8h1.3v1.3h0c.6-1,1.4-1.5,2.5-1.5s1,.2,1.4.5.7.7.8,1.2c.6-1.1,1.5-1.7,2.7-1.7,1.8,0,2.6,1.1,2.6,3.3v4.9Z"/>
      <path class="cls-17" d="M283.6,418.9h-1.3v-1.2h0c-.6,1-1.4,1.4-2.5,1.4s-1.4-.2-1.9-.6c-.5-.4-.7-1-.7-1.7,0-1.5.9-2.4,2.6-2.6l2.4-.3c0-1.4-.5-2-1.6-2s-1.8.3-2.6,1v-1.3c.8-.5,1.7-.8,2.7-.8,1.9,0,2.8,1,2.8,3v5.2ZM282.3,414.9l-1.9.3c-.6,0-1,.2-1.3.4-.3.2-.5.6-.5,1.1s.1.7.4,1c.3.2.6.4,1.1.4s1.2-.2,1.6-.7.6-1,.6-1.7v-.8Z"/>
      <path class="cls-17" d="M292.7,418.9h-1.3v-4.6c0-1.7-.6-2.5-1.9-2.5s-1.2.2-1.6.7c-.4.5-.6,1.1-.6,1.8v4.6h-1.3v-8h1.3v1.3h0c.6-1,1.5-1.5,2.6-1.5s1.5.3,2,.8c.5.6.7,1.4.7,2.4v4.9Z"/>
      <path class="cls-17" d="M301.9,418.9h-1.3v-1.4h0c-.6,1-1.5,1.5-2.8,1.5s-1.8-.4-2.4-1.1-.9-1.7-.9-2.9.3-2.4,1-3.2c.7-.8,1.6-1.2,2.7-1.2s1.9.4,2.4,1.3h0v-5h1.3v11.8ZM300.6,415.3v-1.2c0-.6-.2-1.2-.6-1.6-.4-.4-1-.7-1.6-.7s-1.4.3-1.8.9c-.4.6-.7,1.4-.7,2.4s.2,1.6.6,2.2,1,.8,1.7.8,1.3-.3,1.7-.8.7-1.2.7-2Z"/>
      <path class="cls-17" d="M313.1,412.2c-.2-.2-.5-.3-1-.3s-1,.3-1.4.8-.6,1.2-.6,2.1v4.1h-1.3v-8h1.3v1.6h0c.2-.6.5-1,.8-1.3s.8-.5,1.3-.5.6,0,.8.1v1.3Z"/>
      <path class="cls-17" d="M317.8,419.1c-1.2,0-2.1-.4-2.8-1.1-.7-.7-1.1-1.7-1.1-3s.4-2.4,1.1-3.1,1.7-1.1,3-1.1,2.1.4,2.8,1.1c.7.7,1,1.8,1,3.1s-.4,2.3-1.1,3.1c-.7.8-1.7,1.2-2.9,1.2ZM317.9,411.8c-.8,0-1.5.3-2,.8-.5.6-.7,1.3-.7,2.3s.2,1.7.7,2.2,1.1.8,1.9.8,1.5-.3,1.9-.8.7-1.3.7-2.3-.2-1.8-.7-2.3-1.1-.8-1.9-.8Z"/>
      <path class="cls-17" d="M325.1,417.8h0v1.2h-1.3v-11.8h1.3v5.2h0c.6-1.1,1.6-1.6,2.8-1.6s1.8.4,2.4,1.1c.6.7.9,1.7.9,2.9s-.3,2.4-1,3.2c-.7.8-1.5,1.2-2.7,1.2s-1.9-.4-2.4-1.3ZM325.1,414.5v1.1c0,.7.2,1.2.6,1.7s1,.7,1.6.7,1.4-.3,1.8-.9c.4-.6.7-1.4.7-2.5s-.2-1.6-.6-2.1c-.4-.5-1-.8-1.7-.8s-1.3.3-1.8.8-.7,1.2-.7,1.9Z"/>
      <path class="cls-17" d="M339.7,418.9h-1.3v-1.3h0c-.5,1-1.4,1.5-2.5,1.5-1.9,0-2.9-1.1-2.9-3.4v-4.8h1.3v4.6c0,1.7.6,2.5,1.9,2.5s1.1-.2,1.5-.7c.4-.5.6-1.1.6-1.8v-4.6h1.3v8Z"/>
      <path class="cls-17" d="M341.8,418.6v-1.4c.7.5,1.5.8,2.3.8s1.7-.4,1.7-1.1,0-.4-.1-.5c0-.1-.2-.3-.4-.4s-.4-.2-.6-.3c-.2,0-.5-.2-.7-.3-.4-.1-.7-.3-.9-.4-.3-.1-.5-.3-.7-.5s-.3-.4-.4-.6c0-.2-.1-.5-.1-.8s0-.7.3-1,.4-.5.7-.7c.3-.2.6-.3,1-.4s.7-.1,1.1-.1c.7,0,1.3.1,1.9.4v1.3c-.6-.4-1.3-.6-2-.6s-.5,0-.6,0c-.2,0-.4.1-.5.2-.1,0-.2.2-.3.4,0,.1-.1.3-.1.5s0,.4.1.5c0,.1.2.3.3.4.1.1.3.2.5.3.2,0,.4.2.7.3.4.1.7.3,1,.4s.5.3.7.5c.2.2.4.4.5.6.1.2.2.5.2.8s0,.7-.3,1c-.2.3-.4.5-.7.7-.3.2-.6.3-1,.4-.4,0-.8.1-1.2.1-.8,0-1.5-.2-2.1-.5Z"/>
      <path class="cls-17" d="M352.8,418.8c-.3.2-.7.2-1.2.2-1.4,0-2.1-.8-2.1-2.3v-4.7h-1.4v-1.1h1.4v-2l1.3-.4v2.4h2v1.1h-2v4.5c0,.5,0,.9.3,1.1.2.2.5.3.9.3s.6,0,.8-.3v1.1Z"/>
      <path class="cls-17" d="M361.1,418.9h-1.3v-4.6c0-1.7-.6-2.5-1.9-2.5s-1.2.2-1.6.7c-.4.5-.6,1.1-.6,1.8v4.6h-1.3v-8h1.3v1.3h0c.6-1,1.5-1.5,2.6-1.5s1.5.3,2,.8c.5.6.7,1.4.7,2.4v4.9Z"/>
      <path class="cls-17" d="M370,415.2h-5.6c0,.9.3,1.6.7,2.1.5.5,1.1.7,1.9.7s1.7-.3,2.5-.9v1.2c-.7.5-1.6.8-2.8.8s-2-.4-2.7-1.1c-.6-.7-1-1.7-1-3.1s.4-2.3,1.1-3c.7-.8,1.6-1.2,2.6-1.2s1.9.3,2.4,1c.6.7.9,1.6.9,2.8v.7ZM368.7,414.2c0-.7-.2-1.3-.5-1.7s-.8-.6-1.5-.6-1.1.2-1.5.6-.7,1-.8,1.7h4.3Z"/>
      <path class="cls-17" d="M371.4,418.6v-1.4c.7.5,1.5.8,2.3.8s1.7-.4,1.7-1.1,0-.4-.1-.5c0-.1-.2-.3-.4-.4s-.4-.2-.6-.3c-.2,0-.5-.2-.7-.3-.4-.1-.7-.3-.9-.4-.3-.1-.5-.3-.7-.5s-.3-.4-.4-.6c0-.2-.1-.5-.1-.8s0-.7.3-1,.4-.5.7-.7c.3-.2.6-.3,1-.4s.7-.1,1.1-.1c.7,0,1.3.1,1.9.4v1.3c-.6-.4-1.3-.6-2-.6s-.5,0-.6,0c-.2,0-.4.1-.5.2-.1,0-.2.2-.3.4,0,.1-.1.3-.1.5s0,.4.1.5c0,.1.2.3.3.4.1.1.3.2.5.3.2,0,.4.2.7.3.4.1.7.3,1,.4s.5.3.7.5c.2.2.4.4.5.6.1.2.2.5.2.8s0,.7-.3,1c-.2.3-.4.5-.7.7-.3.2-.6.3-1,.4-.4,0-.8.1-1.2.1-.8,0-1.5-.2-2.1-.5Z"/>
      <path class="cls-17" d="M378.2,418.6v-1.4c.7.5,1.5.8,2.3.8s1.7-.4,1.7-1.1,0-.4-.1-.5c0-.1-.2-.3-.4-.4s-.4-.2-.6-.3c-.2,0-.5-.2-.7-.3-.4-.1-.7-.3-.9-.4-.3-.1-.5-.3-.7-.5s-.3-.4-.4-.6c0-.2-.1-.5-.1-.8s0-.7.3-1,.4-.5.7-.7c.3-.2.6-.3,1-.4s.7-.1,1.1-.1c.7,0,1.3.1,1.9.4v1.3c-.6-.4-1.3-.6-2-.6s-.5,0-.6,0c-.2,0-.4.1-.5.2-.1,0-.2.2-.3.4,0,.1-.1.3-.1.5s0,.4.1.5c0,.1.2.3.3.4.1.1.3.2.5.3.2,0,.4.2.7.3.4.1.7.3,1,.4s.5.3.7.5c.2.2.4.4.5.6.1.2.2.5.2.8s0,.7-.3,1c-.2.3-.4.5-.7.7-.3.2-.6.3-1,.4-.4,0-.8.1-1.2.1-.8,0-1.5-.2-2.1-.5Z"/>
      <path class="cls-17" d="M393.6,418.8c-.3.2-.7.2-1.2.2-1.4,0-2.1-.8-2.1-2.3v-4.7h-1.4v-1.1h1.4v-2l1.3-.4v2.4h2v1.1h-2v4.5c0,.5,0,.9.3,1.1.2.2.5.3.9.3s.6,0,.8-.3v1.1Z"/>
      <path class="cls-17" d="M398.7,419.1c-1.2,0-2.1-.4-2.8-1.1-.7-.7-1.1-1.7-1.1-3s.4-2.4,1.1-3.1,1.7-1.1,3-1.1,2.1.4,2.8,1.1c.7.7,1,1.8,1,3.1s-.4,2.3-1.1,3.1c-.7.8-1.7,1.2-2.9,1.2ZM398.8,411.8c-.8,0-1.5.3-2,.8-.5.6-.7,1.3-.7,2.3s.2,1.7.7,2.2,1.1.8,1.9.8,1.5-.3,1.9-.8.7-1.3.7-2.3-.2-1.8-.7-2.3-1.1-.8-1.9-.8Z"/>
      <path class="cls-17" d="M411.5,418.3c0,2.9-1.4,4.4-4.2,4.4s-1.9-.2-2.6-.6v-1.3c.9.5,1.8.8,2.6.8,2,0,3-1,3-3.1v-.9h0c-.6,1-1.5,1.5-2.8,1.5s-1.8-.4-2.4-1.1c-.6-.7-.9-1.7-.9-2.9s.3-2.4,1-3.2c.7-.8,1.5-1.2,2.7-1.2s1.9.4,2.4,1.3h0v-1.1h1.3v7.4ZM410.2,415.3v-1.2c0-.6-.2-1.2-.6-1.6s-1-.7-1.6-.7-1.4.3-1.9.9c-.4.6-.7,1.4-.7,2.4s.2,1.6.6,2.1,1,.8,1.7.8,1.3-.3,1.8-.8c.5-.5.7-1.2.7-2Z"/>
      <path class="cls-17" d="M420.5,415.2h-5.6c0,.9.3,1.6.7,2.1.5.5,1.1.7,1.9.7s1.7-.3,2.5-.9v1.2c-.7.5-1.6.8-2.8.8s-2-.4-2.7-1.1c-.6-.7-1-1.7-1-3.1s.4-2.3,1.1-3c.7-.8,1.6-1.2,2.6-1.2s1.9.3,2.4,1c.6.7.9,1.6.9,2.8v.7ZM419.2,414.2c0-.7-.2-1.3-.5-1.7s-.8-.6-1.5-.6-1.1.2-1.5.6-.7,1-.8,1.7h4.3Z"/>
      <path class="cls-17" d="M426.2,418.8c-.3.2-.7.2-1.2.2-1.4,0-2.1-.8-2.1-2.3v-4.7h-1.4v-1.1h1.4v-2l1.3-.4v2.4h2v1.1h-2v4.5c0,.5,0,.9.3,1.1.2.2.5.3.9.3s.6,0,.8-.3v1.1Z"/>
      <path class="cls-17" d="M434.5,418.9h-1.3v-4.6c0-1.7-.6-2.5-1.9-2.5s-1.2.2-1.6.7c-.4.5-.6,1.1-.6,1.9v4.5h-1.3v-11.8h1.3v5.2h0c.6-1,1.5-1.5,2.6-1.5,1.8,0,2.7,1.1,2.7,3.3v4.9Z"/>
      <path class="cls-17" d="M443.4,415.2h-5.6c0,.9.3,1.6.7,2.1.5.5,1.1.7,1.9.7s1.7-.3,2.5-.9v1.2c-.7.5-1.6.8-2.8.8s-2-.4-2.7-1.1c-.6-.7-1-1.7-1-3.1s.4-2.3,1.1-3c.7-.8,1.6-1.2,2.6-1.2s1.9.3,2.4,1c.6.7.9,1.6.9,2.8v.7ZM442.1,414.2c0-.7-.2-1.3-.5-1.7s-.8-.6-1.5-.6-1.1.2-1.5.6-.7,1-.8,1.7h4.3Z"/>
      <path class="cls-17" d="M449.5,412.2c-.2-.2-.5-.3-1-.3s-1,.3-1.4.8-.6,1.2-.6,2.1v4.1h-1.3v-8h1.3v1.6h0c.2-.6.5-1,.8-1.3s.8-.5,1.3-.5.6,0,.8.1v1.3Z"/>
      <path class="cls-17" d="M451.3,419.1c-.2,0-.4,0-.6-.3-.2-.2-.3-.4-.3-.6s0-.4.3-.6c.2-.2.4-.3.6-.3s.5,0,.6.3.3.4.3.6,0,.4-.3.6-.4.3-.6.3Z"/>
    </g>
  </g>
</svg>